<?xml version="1.0" encoding="UTF-8" standalone="no"?>
<!-- Created with Inkscape (http://www.inkscape.org/) -->

<svg
   xmlns:dc="http://purl.org/dc/elements/1.1/"
   xmlns:cc="http://creativecommons.org/ns#"
   xmlns:rdf="http://www.w3.org/1999/02/22-rdf-syntax-ns#"
   xmlns:svg="http://www.w3.org/2000/svg"
   xmlns="http://www.w3.org/2000/svg"
   xmlns:sodipodi="http://sodipodi.sourceforge.net/DTD/sodipodi-0.dtd"
   xmlns:inkscape="http://www.inkscape.org/namespaces/inkscape"
   width="183.4196"
   height="100"
   viewBox="0 0 48.529769 26.458333"
   version="1.1"
   id="svg8"
   sodipodi:docname="Point_Sud_logo_01.svg"
   inkscape:version="0.92.3 (2405546, 2018-03-11)">
  <defs
     id="defs2">
    <clipPath
       id="clipPath3740"
       clipPathUnits="userSpaceOnUse">
      <path
         inkscape:connector-curvature="0"
         id="path3738"
         d="M 0,595.276 H 841.89 V 0 H 0 Z" />
    </clipPath>
  </defs>
  <sodipodi:namedview
     id="base"
     pagecolor="#ffffff"
     bordercolor="#666666"
     borderopacity="1.0"
     inkscape:pageopacity="0.0"
     inkscape:pageshadow="2"
     inkscape:zoom="2"
     inkscape:cx="120.09335"
     inkscape:cy="34.915978"
     inkscape:document-units="mm"
     inkscape:current-layer="layer1"
     showgrid="false"
     inkscape:window-width="1600"
     inkscape:window-height="836"
     inkscape:window-x="-4"
     inkscape:window-y="-4"
     inkscape:window-maximized="1"
     units="px"
     fit-margin-top="0"
     fit-margin-left="0"
     fit-margin-right="0"
     fit-margin-bottom="0" />
  <metadata
     id="metadata5">
    <rdf:RDF>
      <cc:Work
         rdf:about="">
        <dc:format>image/svg+xml</dc:format>
        <dc:type
           rdf:resource="http://purl.org/dc/dcmitype/StillImage" />
        <dc:title></dc:title>
      </cc:Work>
    </rdf:RDF>
  </metadata>
  <g
     inkscape:label="Ebene 1"
     inkscape:groupmode="layer"
     id="layer1"
     transform="translate(-57.183197,-92.648159)">
    <g
       transform="matrix(0.2952112,0,0,-0.2952112,-42.98341,193.48891)"
       inkscape:label="Point_Sud_logo"
       id="g3732">
      <g
         id="g3734">
        <g
           clip-path="url(#clipPath3740)"
           id="g3736">
          <g
             transform="translate(453.4951,283.6924)"
             id="g3742">
            <path
               inkscape:connector-curvature="0"
               id="path3744"
               style="fill:#fe7f02;fill-opacity:1;fill-rule:nonzero;stroke:none"
               d="m 0,0 -17.311,0.74 h -1.699 c -0.53,-13.82 -10.06,-25.52 -23.03,-28.1 -10.75,4.36 -18.4,14.82 -18.4,27.179 h -0.871 L -78.23,0.56 h -1.44 v -1.22 c 0,-17.26 14.73,-31.069 32.16,-31.069 3.11,0 6.08,0.479 8.83,1.269 2.5,-0.609 5.11,-1.01 7.78,-1.01 17.299,0 31.339,14.071 31.339,31.369 H -0.09 Z m -30.94,-29.46 c -1.491,0 -2.93,0 -4.28,0.439 10.48,4.452 17.96,14.372 19.659,26.051 L -1.79,-3.58 c -1.8,-14.51 -14.16,-25.739 -29.15,-25.79" />
          </g>
          <g
             transform="translate(373.6445,331.1865)"
             id="g3746">
            <path
               inkscape:connector-curvature="0"
               id="path3748"
               style="fill:#df5a06;fill-opacity:1;fill-rule:nonzero;stroke:none"
               d="m 0,0 c 0,5.726 4.641,10.402 10.37,10.402 5.761,0 10.401,-4.676 10.401,-10.402 0,-5.724 -4.64,-10.364 -10.401,-10.364 C 4.641,-10.364 0,-5.724 0,0" />
          </g>
          <g
             transform="translate(483.5049,310.6924)"
             id="g3750">
            <path
               inkscape:connector-curvature="0"
               id="path3752"
               style="fill:#000000;fill-opacity:1;fill-rule:nonzero;stroke:none"
               d="m 0,0 c 1.88,0.44 4.37,0.52 6.92,0.52 4.36,0 7.29,-0.74 9.391,-2.4 2.389,-1.74 3.879,-4.58 3.879,-8.69 0,-4.38 -1.57,-7.39 -3.75,-9.23 -2.41,-2 -6.12,-2.971 -10.62,-2.971 -2.67,0 -4.59,0 -5.82,0.441 L 0,0.09 Z m 5.12,-18.61 h 1.8 c 4.75,0 7.81,2.52 7.81,7.99 0,4.94 -2.79,7.25 -7.25,7.25 -1.09,0 -1.92,0 -2.36,-0.43 V -18.74 Z M -18,0.35 v -13.12 c 0,-3.959 1.54,-5.97 4.15,-5.97 2.71,0 4.24,1.91 4.24,5.97 V 0.35 h 5.12 v -12.8 c 0,-7.08 -3.55,-10.449 -9.489,-10.449 -5.811,0 -9.171,3.229 -9.171,10.499 V 0.35 Z m -23.29,-17.57 c 1.35,-0.7 3.54,-1.44 5.72,-1.44 2.4,0 3.67,1 3.67,2.54 0,1.391 -1.09,2.23 -3.88,3.19 -3.76,1.35 -6.29,3.45 -6.29,6.82 0,3.88 3.27,6.85 8.65,6.85 2.61,0 4.46,-0.52 5.81,-1.18 l -1.14,-4.15 c -0.87,0.44 -2.57,1.1 -4.77,1.1 -2.23,0 -3.31,-1.05 -3.31,-2.19 0,-1.44 1.26,-2.1 4.29,-3.28 3.96,-1.48 5.89,-3.58 5.89,-6.811 0,-3.849 -2.97,-7.128 -9.26,-7.128 -2.54,0 -5.12,0.739 -6.42,1.449 z m -21.15,13.24 h -6.16 v 4.33 h 17.57 v -4.33 h -6.3 V -22.5 h -5.11 z M -90.32,-22.5 V 0.35 h 6.07 l 4.771,-8.4 c 1.299,-2.39 2.619,-5.23 3.719,-7.81 -0.58,3.01 -0.58,6.12 -0.58,9.57 v 6.64 h 4.72 V -22.5 h -5.42 l -4.85,8.82 c -1.35,2.45 -2.87,5.37 -3.98,8.05 v -10.01 -6.86 h -4.75 z m -9.65,0 h 5.2 V 0.35 h -5.2 z m -14.64,-0.44 c -6.78,0 -10.75,5.11 -10.75,11.63 0,6.85 4.4,11.97 11.14,11.97 6.991,0 10.78,-5.25 10.78,-11.58 0,-7.52 -4.45,-12.02 -11.12,-12.02 z m 0,4.11 c 3.49,0 5.5,3.28 5.5,7.78 0,4.06 -1.97,7.6 -5.5,7.6 -3.55,0 -5.55,-3.46 -5.55,-7.74 0,-4.32 2.05,-7.64 5.55,-7.64 M -144.2,0 c 1.57,0.44 3.8,0.47 6.99,0.47 3.15,0 5.51,-0.61 7,-1.86 1.43,-1.1 2.44,-3.02 2.44,-5.25 0,-2.28 -0.78,-4.15 -2.1,-5.42 -1.78,-1.62 -4.41,-2.41 -7.47,-2.41 h -1.75 v -8.2 h -5.11 v 22.53 z m 5.11,-10.4 h 1.71 c 2.79,0 4.46,1.4 4.46,3.67 0,2.14 -1.41,3.36 -4.03,3.36 h -2.14 v -6.77 z" />
          </g>
        </g>
      </g>
    </g>
  </g>
</svg>
